<svg viewBox="0 0 197.44 52.480000000000004" width="197.44" height="52.480000000000004" class="LogoWithInformation_logoBase__2JXvx LogoWithInformation_logoWide__2RDO7"><rect fill="#fe0b01" width="197.44" height="52.480000000000004" x="0" y="0"></rect><path fill="white" fill-rule="nonzero" d="M12.80 0Q18.08 0 21.48 2.14Q24.88 4.28 24.96 8.48L24.96 8.48L24.96 8.96L16.68 8.96L16.68 8.80Q16.68 7.60 15.80 6.80Q14.92 6 13.12 6L13.12 6Q11.36 6 10.42 6.52Q9.48 7.04 9.48 7.80L9.48 7.80Q9.48 8.88 10.76 9.40Q12.04 9.92 14.88 10.48L14.88 10.48Q18.20 11.16 20.34 11.90Q22.48 12.64 24.08 14.32Q25.68 16 25.72 18.88L25.72 18.88Q25.72 23.76 22.42 26.12Q19.12 28.48 13.60 28.48L13.60 28.48Q7.16 28.48 3.58 26.32Q0 24.16 0 18.68L0 18.68L8.36 18.68Q8.36 20.76 9.44 21.46Q10.52 22.16 12.80 22.16L12.80 22.16Q14.48 22.16 15.58 21.80Q16.68 21.44 16.68 20.32L16.68 20.32Q16.68 19.32 15.46 18.82Q14.24 18.32 11.48 17.76L11.48 17.76Q8.12 17.04 5.92 16.26Q3.72 15.48 2.08 13.68Q0.44 11.88 0.44 8.80L0.44 8.80Q0.44 4.28 3.94 2.14Q7.44 0 12.80 0L12.80 0ZM54.96 7.52L45.96 7.52L45.96 28L37.12 28L37.12 7.52L28.08 7.52L28.08 0.48L54.96 0.48L54.96 7.52ZM84.08 28L74.72 28L73.56 24.12L63.92 24.12L62.76 28L53.72 28L63.76 0.48L74.04 0.48L84.08 28ZM68.68 8.16L65.76 17.96L71.72 17.96L68.84 8.16L68.68 8.16ZM101.08 17.32L101.08 28L92.24 28L92.24 17.32L81.32 0.48L91.48 0.48L96.76 9.64L96.92 9.64L102.20 0.48L111.84 0.48L101.08 17.32ZM126.40 0Q133.52 0 137.40 3.64Q141.28 7.28 141.28 14.24L141.28 14.24Q141.28 21.20 137.40 24.84Q133.52 28.48 126.40 28.48L126.40 28.48Q119.28 28.48 115.42 24.86Q111.56 21.24 111.56 14.24L111.56 14.24Q111.56 7.24 115.42 3.62Q119.28 0 126.40 0L126.40 0ZM126.40 6.60Q123.56 6.60 122.08 8.32Q120.60 10.04 120.60 12.96L120.60 12.96L120.60 15.52Q120.60 18.44 122.08 20.16Q123.56 21.88 126.40 21.88L126.40 21.88Q129.24 21.88 130.74 20.16Q132.24 18.44 132.24 15.52L132.24 15.52L132.24 12.96Q132.24 10.04 130.74 8.32Q129.24 6.60 126.40 6.60L126.40 6.60ZM173.44 28L165.72 28L154.16 14.64L154.16 28L146.04 28L146.04 0.48L153.76 0.48L165.32 14.04L165.32 0.48L173.44 0.48L173.44 28Z" transform="translate(12 12.001) scale(1)"></path></svg>